# xmcd
#
# Track frame offsets:
#	150
#	17908
#	27179
#	40724
#	50869
#	72845
#	77948
#	100428
#	115058
#	129918
#	164140
#	172122
#	192213
#	208026
#	238311
#
# Disc length: 3425 seconds
#
# Revision: 1
# Processed by: cddbd v1.5.2PL0 Copyright (c) Steve Scherf et al.
# Submitted via: audiograbber 1.83.01
#
DISCID=da0d5f0f
DTITLE=Chris Ruhe - Prayin' Twice
DYEAR=2006
DGENRE=Blues
TTITLE0=Danublues
TTITLE1=Little Twig Plaint
TTITLE2='52 Blues
TTITLE3=The Nightingale
TTITLE4=I Been Drivin'
TTITLE5=One More Time Around The Sun
TTITLE6=Crescent Moon
TTITLE7=Oogie Woogie Boogie
TTITLE8=The Thief
TTITLE9=The Ballad Of Dale Sinclair
TTITLE10=Flowers
TTITLE11=Shoghi Effendi
TTITLE12=Rockin' Blues
TTITLE13=Chesspieces - David's Gone
TTITLE14=Kiribati Bash
EXTD=
EXTT0=
EXTT1=
EXTT2=
EXTT3=
EXTT4=
EXTT5=
EXTT6=
EXTT7=
EXTT8=
EXTT9=
EXTT10=
EXTT11=
EXTT12=
EXTT13=
EXTT14=
PLAYORDER=
